<?xml version="1.0" encoding="utf-8"?>
<!-- Svg Vector Icons : http://www.onlinewebfonts.com/icon -->
<!DOCTYPE svg PUBLIC "-//W3C//DTD SVG 1.1//EN" "http://www.w3.org/Graphics/SVG/1.1/DTD/svg11.dtd">
<svg version="1.1" xmlns="http://www.w3.org/2000/svg" xmlns:xlink="http://www.w3.org/1999/xlink" x="0px" y="0px" viewBox="0 0 1000 1000" enable-background="new 0 0 1000 1000" xml:space="preserve">
<metadata> Svg Vector Icons : http://www.onlinewebfonts.com/icon </metadata>
<g><g><path id="Squarespace" d="M172.3,459.8l294.3-296c73.9-74.3,193.6-74.3,267.5,0c17.7,18.6,16.9,48.8-1.3,67.1c-18.5,18.6-48.4,18.6-66.9,0l-4.5-5.2c-37.1-31.7-92.9-29.9-127.9,5.4L232.5,533.6c-19.8,18.4-49.7,18.4-68.2-0.2c-18.5-18.6-18.5-48.7,0-67.3C166.8,463.7,169.5,461.6,172.3,459.8z M833,466.2c-18.5-18.6-48.4-18.6-66.9,0c-2.5,2.5-4.6,5.2-6.4,8L466.6,769c-36.9,37.1-96.8,37.1-133.7,0l-1.3-0.2c-18.4-18.6-48.4-18.6-66.9,0c-18.5,18.5-18.5,48.7,0,67.2c2.4,2.4,4.9,4.4,7.5,6.2c74.3,68.2,189.4,66.2,261.3-6L833,533.4C851.4,514.9,851.4,484.8,833,466.2z M372.9,661.5c-2.8,1.8-5.5,4-7.9,6.4c-18.5,18.5-18.5,48.7,0,67.2c18.5,18.6,48.4,18.6,68.2,0.2L734,432.7c36.9-37.1,96.8-37.1,133.7,0c37,37.2,37,97.4,0,134.5L582.4,855.6c37,37.1,96.8,37.1,133.7,0l218.5-221.1c73.8-74.3,73.8-194.7,0-269c-73.8-74.2-193.6-74.2-267.5,0L372.9,661.5z M332.8,634.5l299.6-302.8c18.5-18.6,18.5-48.7,0-67.2c-18.4-18.6-48.4-18.6-66.9,0c-2.5,2.5-4.6,5.2-6.4,8L266,567.3c-36.9,37.2-96.8,37.2-133.7,0c-37-37.1-37-97.4,0-134.5l285.3-288.3c-36.9-37.2-96.8-37.2-133.7,0L65.4,365.5c-73.9,74.3-73.9,194.8,0,269C139.3,708.8,259,708.8,332.8,634.5z"/></g><g></g><g></g><g></g><g></g><g></g><g></g><g></g><g></g><g></g><g></g><g></g><g></g><g></g><g></g><g></g></g>
</svg>