<svg xmlns="http://www.w3.org/2000/svg" viewBox="0 0 24 24"><defs><style>.cls-1{fill:#eb2678;}.cls-2{fill:#fff;}</style></defs>
<path fill="orange" d="M 4.5 2 C 3.121094 2 2 3.121094 2 4.5 C 2 5.804688 3.003906 6.855469 4.28125 6.96875 C 4.113281 7.445313 4 7.945313 4 8.46875 C 4 9.667969 4.46875 10.8125 5.3125 11.65625 L 9.59375 16 L 11 14.59375 L 6.71875 10.21875 C 6.25 9.75 6 9.136719 6 8.46875 C 6 7.800781 6.25 7.1875 6.71875 6.71875 C 7.1875 6.25 7.800781 6 8.46875 6 C 8.972656 6 9.46875 6.136719 9.875 6.40625 L 11.28125 5 C 10.054688 4.015625 8.40625 3.773438 6.96875 4.28125 C 6.855469 3.003906 5.804688 2 4.5 2 Z M 19.5 2 C 18.207031 2 17.160156 2.988281 17.03125 4.25 C 15.453125 3.691406 13.605469 4.050781 12.34375 5.3125 L 8 9.59375 L 9.40625 11 L 13.75 6.71875 C 14.722656 5.75 16.308594 5.75 17.28125 6.71875 C 18.136719 7.574219 18.242188 8.90625 17.59375 9.875 L 19 11.28125 C 19.65625 10.464844 20 9.464844 20 8.46875 C 20 7.960938 19.890625 7.453125 19.71875 6.96875 C 20.996094 6.855469 22 5.804688 22 4.5 C 22 3.121094 20.878906 2 19.5 2 Z M 14.40625 8 L 13 9.40625 L 17.28125 13.75 C 18.25 14.722656 18.25 16.308594 17.28125 17.28125 C 16.425781 18.136719 15.09375 18.242188 14.125 17.59375 L 12.71875 19 C 13.535156 19.65625 14.535156 20 15.53125 20 C 16.039063 20 16.546875 19.890625 17.03125 19.71875 C 17.144531 20.996094 18.195313 22 19.5 22 C 20.878906 22 22 20.878906 22 19.5 C 22 18.207031 21.011719 17.160156 19.75 17.03125 C 20.308594 15.453125 19.949219 13.605469 18.6875 12.34375 Z M 5 12.71875 C 4.03125 13.90625 3.78125 15.582031 4.28125 17.03125 C 3.003906 17.144531 2 18.195313 2 19.5 C 2 20.878906 3.121094 22 4.5 22 C 5.804688 22 6.855469 20.996094 6.96875 19.71875 C 7.445313 19.886719 7.945313 20 8.46875 20 C 9.667969 20 10.8125 19.53125 11.65625 18.6875 L 16 14.40625 L 14.59375 13 L 10.21875 17.28125 C 9.75 17.75 9.136719 18 8.46875 18 C 7.800781 18 7.1875 17.75 6.71875 17.28125 C 6.25 16.8125 6 16.199219 6 15.53125 C 6 15.027344 6.136719 14.53125 6.40625 14.125 Z"></path></svg>