<svg xmlns="http://www.w3.org/2000/svg" viewBox="0 0 405 405"><defs><style>.cls-1{fill:#ff006e;}.cls-2{fill:#fff;}</style></defs><g id="Layer_2" data-name="Layer 2"><g id="Layer_1-2" data-name="Layer 1"><rect class="cls-1" width="405" height="405" rx="202.5"/><path class="cls-2" d="M258.84,228.26c68.21-89.31,52.63-143,52.63-143-38.09,42.58-101.53,63.07-152.77,73.8,16.11-15.87,27-27.1,37.65-48-31.55,26.1-70.4,31.67-104.63,54.7C45.36,197,24.26,242.41,26.79,312.44c26.15-46.45,53.07-66,81.32-74.19A206.89,206.89,0,0,0,163,212.48s-8.13,22.41-34.87,40.66c35.73-5.86,74.92-36.41,87.11-51.48-4.24,63.88-63,142.88-132.08,171,168.74,30.79,224.73-158.17,227-184.28C300.27,205.34,277.79,227.25,258.84,228.26Z"/></g></g></svg>