<svg xmlns="http://www.w3.org/2000/svg" viewBox="0 0 1900.08 317.01"><defs><style>.cls-1{fill:#00acee;}</style></defs><g id="Layer_2" data-name="Layer 2"><g id="Layer_1-2" data-name="Layer 1"><path class="cls-1" d="M1844.59,140.6C1914.47,52.77,1898.52,0,1898.52,0c-39,41.87-104,62-156.51,72.57,16.5-15.6,27.66-26.64,38.57-47.19-32.33,25.67-72.13,31.15-107.2,53.79-47.49,30.66-69.11,75.35-66.51,144.22,26.78-45.68,54.36-64.93,83.3-73a215.54,215.54,0,0,0,56.25-25.35s-8.33,22-35.73,40c36.61-5.76,76.76-35.8,89.25-50.63-4.35,62.83-64.58,140.52-135.32,168.13C1837.5,312.85,1894.86,127,1897.18,101.35,1887.05,118.06,1864,139.61,1844.59,140.6Z"/><path class="cls-1" d="M378.11,139c-21.46,0-37.41,11.55-44.57,18.15V142.8H301.08V281.73h32.46V183.52c4.4-5.78,18.43-16,31.92-16,22.56,0,27,14.3,27,38.52v75.65h32.46V189C424.88,154.08,408.38,139,378.11,139Z"/><polygon class="cls-1" points="493.46 95.48 461 95.48 461 143.07 434.86 143.07 434.86 169.48 461 169.48 461 281.73 493.46 281.73 493.46 169.48 527.58 169.48 527.58 143.07 493.46 143.07 493.46 95.48"/><path class="cls-1" d="M214.31,139c-42.92,0-75.66,32.74-75.66,73.73,0,40.72,32.74,73.18,74.83,73.18s75.11-33,75.11-73.18C288.59,172.23,256.4,139,214.31,139Zm-1.1,120c-21.19,0-41-18.43-41-45.4,0-28.61,17.89-47.32,41.82-47.32,22,0,40.17,18.71,40.17,46.5C254.2,241,238,258.9,213.21,258.9Z"/><path class="cls-1" d="M76.48,259.17c-23.93,0-42.92-19.25-42.92-46.49,0-30,20.64-46.5,42.92-46.5,17.06,0,29.72,9.91,33.57,13.48l12.38-24.48C117.75,150.5,98.77,139,75.11,139,34.67,139,0,170.31,0,212.4c0,46,39.07,73.46,71.81,73.46,31.36,0,59.88-25.22,66.21-31.54l-10.46-22.57C122.89,237,98.22,259.17,76.48,259.17Z"/><path class="cls-1" d="M761.6,139c-21.46,0-37.42,11.55-44.57,18.15V142.8H684.56V281.73H717V183.52c4.4-5.78,18.43-16,31.91-16,22.56,0,27,14.3,27,38.52v75.65h32.46V189C808.37,154.08,791.86,139,761.6,139Z"/><path class="cls-1" d="M1533.88,258.9c-30.54,0-46.77-16.51-48.69-34.39h106.74V211c0-38.52-22.56-72.08-67.68-72.08-43.46,0-72.63,31.36-72.63,74.28,0,44,30.82,72.63,76.76,72.63,29.44,0,96-19.22,103.43-25.82l-13.74-23.11C1610.64,242.71,1555.34,258.9,1533.88,258.9Zm-10.18-94.37c21.46,0,33.57,15.68,34.4,33.84h-72.64C1487.94,176.64,1504.72,164.53,1523.7,164.53Z"/><path class="cls-1" d="M1158.13,139c-23.11,0-40.16,5.5-52.27,11.28l9.91,23.66a100.54,100.54,0,0,1,38.79-8c23.38,0,30.54,8.25,30.54,21.46V203.6c-9.36-8.8-26.42-12.38-40.45-12.38-34.11,0-54.47,21.18-54.47,45.39,0,23.39,19.26,49.25,64.65,49.25,26.41,0,50.63-8.8,61.36-18.71v-72.9C1216.19,160.68,1204.08,139,1158.13,139Zm27,113.62c-6.61,4.13-18.44,7.43-30,7.43-21.46,0-31.09-11.28-31.09-22s9.63-21.46,28.06-21.46c13.48,0,27,6.05,33,11.83Z"/><rect class="cls-1" x="1043.61" y="56.13" width="32.46" height="225.6"/><path class="cls-1" d="M600.58,139c-43.47,0-72.64,31.36-72.64,74.28,0,44,30.82,72.63,76.76,72.63,29.44,0,51.17-11.83,58.6-18.43l-10.18-23.11a68.17,68.17,0,0,1-42.91,14.58c-30.54,0-46.78-16.51-48.7-34.39H668.25V211C668.25,172.51,645.7,139,600.58,139Zm-38.8,59.42c2.48-21.73,19.26-33.84,38.24-33.84,21.46,0,33.57,15.68,34.4,33.84Z"/><path class="cls-1" d="M1395.12,139c-21.18,0-38.79,12.38-49.8,20.9-4.12-8.25-12.65-20.9-34.66-20.9-21.19,0-37.42,12.38-43.74,18.43V142.8h-32.47V281.73h32.47V183c4.67-5.51,17.88-15.41,30.53-15.41,14.86,0,23.39,7.15,23.39,24.76v89.41h32.46V183c5.78-6.61,18.16-15.41,32.19-15.41,14.31,0,21.74,8.25,21.74,26.14v88h32.46V188.47C1439.69,154.08,1423.46,139,1395.12,139Z"/><path class="cls-1" d="M965.63,71.68C956.82,82.16,953,97.81,953,114.07v27H929.58v26.43H953l-1,83.43c0,18.33-14.69,36.8-33,36.8s-34.73-18.47-34.73-36.8l.53-83.43h34.13V141H884.72V93.43H852.27V141H826.14v26.43h26.13l-.17,87c1.35,35.27,31.23,62.55,66.82,62.55,34.37,0,62-25.43,65.11-59l1.11-90.57h34.94V141H985.14V113.5c0-19.54,7.7-30.8,24.21-30.8a37.09,37.09,0,0,1,17.08,4.13l8.24-26.42a77.31,77.31,0,0,0-27.25-5.24C992.3,55.17,975.79,59.87,965.63,71.68Z"/></g></g></svg>