<svg version="1.1" xmlns="http://www.w3.org/2000/svg" viewBox="0 0 700 660" xml:space="preserve">
      <g>
        <path id="aujs1" fill="#00acee" stroke="#FFFFFF" vector-effect="non-scaling-stroke" d="M611.871,459.083c-3.738,2.13-7.274,4.513-7.497,7.019c-0.824,9.308,3.208,13.027,5.278,14.063c2.853,1.426,0.159-9.254,2.693-13.553c1.823-3.09,3.487-0.316,5.072-1.742C619.004,463.441,614.645,464.076,611.871,459.083z" cursor="pointer"></path>
        <path id="aujs2" fill="#00acee" stroke="#FFFFFF" vector-effect="non-scaling-stroke" d="M684.843,325.155c-2.686-1.521-3.896,1.017-5.589,0.574c-3.861-1.008-6.069,4.257-9.381,1.131c-3.311-3.127-2.391,1.655-10.117,3.862c-4.367,1.248,2.943,10.484-6.621,8.461c-4.184-0.886-1.472,6.254-5.335,4.598c-3.863-1.655,0.369-4.598-5.517-8.276c-5.887-3.679-7.175-0.552-10.3-3.555c-3.129-3.002-7.458,2.272-11.222,0.612c-6.254-2.759-2.759,1.71-6.988,2.629c-4.232,0.92-4.384,6.309-4.384,6.309H474.5v97.746c11,6.253,12.6-0.185,18.301,2.391c5.702,2.576,4.569,9.933,8.248,12.14c3.678,2.208-1.855-6.621,7.71-1.471c7.898,4.252,2.075,9.749,6.614,10.485c6.806,1.103,0.731,2.759,7.17,5.333c5.118,2.047,10.85,13.612,17.288,13.244c3.86-0.221-3.312-6.168,5.149-5.335c6.04,0.595,4.598,2.023,15.634,3.679c3.799,0.569,5.284-2.716,10.852,0.184c8.829,4.599,10.117-3.495,12.14-1.655c2.023,1.84,8.875-0.564,8.461,4.966c-0.552,7.357,3.769,10.117,2.392,10.668c-4.599,1.84,23.485,12.487,28.297,17.28c3.461,1.929,4.424-4.901,2.21-8.828c-2.21-3.927,3.676-14.238,2.944-21.107c-0.73-6.867,11.128-17.668,11.781-29.693c0.396-7.389,4.331-6.542,5.15-11.774c0.821-5.233,5.805-7.614,6.874-15.703c1.055-8.05,9.088-11.272,13.002-14.486c7.69-6.291-2.047-1.627,9.813-22.074c6.537-11.27-1.47-11.049,4.66-24.544c2.107-4.63,2.215-17.669,4.426-22.33C685.816,335.954,687.047,330.799,684.843,325.155z M617.418,464.869c-1.585,1.426-3.249-1.348-5.072,1.742c-2.534,4.299,0.159,14.979-2.693,13.553c-2.07-1.035-6.103-4.755-5.278-14.063c0.223-2.506,3.759-4.889,7.497-7.019C614.645,464.076,619.004,463.441,617.418,464.869z" cursor="pointer"></path>
        <path id="aujs3" fill="#00acee" stroke="#FFFFFF" vector-effect="non-scaling-stroke" d="M274.5,284.001V86.092c1,0.695,2.561,1.02,3.128,0.306c4.627-5.831,9.688,4.416,7.726-0.003c-1.962-4.412,2.465-4.03-0.981-6.376c-10.307-7.034,2.445-7.284,2.7-13.742c0.409-10.391,10.794-1.88,7.605-9.326c-3.19-7.446,3.189-5.401,2.7-8.588c-0.494-3.194,3.271-0.571,3.431-4.663c0.167-4.091,3.934,0.244,4.912-3.438c0.983-3.682,2.208,1.148,5.763-2.575c3.56-3.723,0.862,6.667,9.325,2.332c2.327-1.186,2.824,2.372,4.663,0.125c1.838-2.255,10.013-2.204,9.2-5.031c-2.129-7.446,3.034-6.056-1.836-8.587c-4.873-2.54-5.889,2.08-7.976-0.982c-2.087-3.069-1.975-4.596,0.125-4.662c9.45-0.327,9.328,6.697,12.513,4.905c6.834-3.848,4.621,5.401,8.462,4.538c3.841-0.855,2.543,1.562,7.001,1.35c6.903-0.327,9.938,6.382,14.837,4.176c4.914-2.213,5.971,5.15,10.437,2.206c2.68-1.773,4.663,0.125,5.151-2.089c0.488-2.205,4.05-1.467,5.762-4.663c1.724-3.187,4.296-0.834,0.488,1.962c-6.375,4.706-4.161,6.013-1.462,5.275c5.346-1.454,0.236,4.831,5.637,4.176c3.693-0.45,4.662-4.294,1.837-4.906c-2.813-0.615,3.521-3.975,4.545-1.962c3.776,7.432,2.697-0.35,5.031,2.574c4.454,5.603-6.75,7.565-4.914,12.882c1.051,3.01-2.218,6.762-3.186,3.556c-1.267-4.21-13.537,11.086-6.868,9.938c3.143-0.538,3.315-0.613,0.732,2.7c-2.575,3.312,0.002,5.525-3.308,6.507c-3.314,0.981-6.984,7.85-6.373,10.055c0.612,2.213,7.807,3.219,8.848,6.256c1.545,4.587,5.072,2.529,7.381,6.382c3.759,6.298,9.735,5.831,13.164,7.12c8.309,3.122,8.799,6.178,13.799,9.89V284.5h-150V284.001z M293.721,31.456c12.323,2.759,3.311-4.609,11.588,1.287c4.469,3.184,10.484-7.542,8.829-9.381c-1.655-1.84-11.184,3.434-14.531-1.288C294.632,15.06,288.467,30.279,293.721,31.456z M401.907,65.668c-4.738-1.288-8.86,8.092-1.135,8.46c7.726,0.368,1.351-2.219,1.871-4.236C403.164,67.875,408.721,67.52,401.907,65.668z" cursor="pointer"></path>
        <path id="aujs4" fill="#00acee" stroke="#FFFFFF" vector-effect="non-scaling-stroke" d="M474.5,284.5v56.522l-0.12,0.478h135.01c0,0,0.151-5.389,4.384-6.309c4.229-0.919,0.734-5.27,6.988-2.51c3.764,1.66,8.093-3.674,11.222-0.671c3.125,3.003,4.413-0.154,10.3,3.525c5.886,3.678,1.653,6.606,5.517,8.262s1.151-5.492,5.335-4.606c9.564,2.023,2.254-7.216,6.621-8.464c7.727-2.208,6.807-6.992,10.117-3.864c3.312,3.126,5.52-2.14,9.381-1.132c1.693,0.443,2.903-2.096,5.589-0.575c-2.212-5.644-8.009-14.23-6.601-20.119c2.755-11.538-5.487-10.104-1.25-16.688c5.151-8.017-3.771-4.5-3.2-14.231c0.489-8.188-3.271,0.897-5.886-9.569c-1.503-6.026-4.171-1.392-8.589-10.8c-6.704-14.274-8.337,1.963-11.776-10.307c-3.674-13.111-9.65,0-8.343-18.649c0.556-7.875-3.516-1.143-4.906-4.169c-1.393-3.027-4.34-1.88-5.65-5.401c-1.307-3.514-4.246-1.635-3.676,1.229c0.296,1.474,0,2.696-2.698,1.228c-2.702-1.476-4.496-1.72-8.34-19.632c-1.558-7.241-4.912-4.419-9.086-9.569c-4.167-5.158,3.604-3.925-1.712-10.307c-2.992-3.582-4.496,2.046-5.65-1.962c-0.914-3.228-6.048-1.803-7.684-5.073c-1.486-2.965-0.936,1.063-2.784,0c-6.136-3.515,0.084-7.036-7.195-6.709c-3.101,0.143-7.26-3.904-9.979-4.578c-9.242-2.29-4.009-15.708-7.195-16.689c-1.366-0.416-1.801,2.944-3.272,0.981c-1.474-1.962,4.329-7.521-2.297-23.062c-1.334-3.135-9.241-6.543-7.519-11.455c1.716-4.906-4.993-14.391-3.273-16.848c1.719-2.457-2.123-2.859,0.814-5.727c1.907-1.851-5.233-3.187-5.888-6.048c-0.655-2.866-4.329,0.655-6.541-7.362c-0.675-2.449-2.789,1.318-4.748,0.487c-3.675-1.552,0.822,4.419-6.869,3.597c-3.719-0.39-2.606-7.54-4.419-9.321c-4.329-4.255,2.296-7.032-0.82-9.976c-3.104-2.951,1.071-6.954-2.283-8.184c-3.354-1.225,1.226-6.458-3.926-8.503c-5.157-2.047,2.452-9.242-3.115-7.69c-4.255,1.188-3.305-6.743-2.727-12.707c0.359-3.73-3.243-4.425-3.321-5.617c-0.495-7.036-3.513,0.822-7.774,0.863c-3.104,0.027,2.297,6.994-4.537,17.544c-6.941,10.717-4.953,8.72-3.188,10.056c5.931,4.504-3.966,4.335-0.738,12.151c1.407,3.398-5.684,5.435-1.475,13.738c1.744,3.429-3.883,9.45,1.106,15.585c2.631,3.229-5.559,13.169-4.044,17.42c1.504,4.252-2.336,12.882-5.037,14.476c-4.982,2.951,1.308,15.707-17.788,14.481c-9.44-0.604-7.608-3.806-11.163-4.05c-3.563-0.242-2.147-5.082-8.464-8.712c-3.983-2.29-5.944-0.183-10.023-2.385c-2.072-1.119-3.813-2.174-4.813-3.182V284.5H474.5z" cursor="pointer"></path>
        <path id="aujs5" fill="#00acee" stroke="#FFFFFF" vector-effect="non-scaling-stroke" d="M474.5,439.246v83.316c-4-0.996-8.538,0.565-10.201-5.515c-1.167-4.269-1.393-0.907-5.701-7.359c-11.702-17.505,0.978-6.302-2.697-18.161c-2.102-6.766-15.714-20.612-10.556-22.087c4.004-1.142,0.476-6.27-2.458-3.187c-6.052,6.376-5.333,1.557-7.111,3.678c-2.532,3.03-12.4,3.553-7.614-0.491c12.52-10.55,2.235-17.404,0.988-21.35c-2.532-8.015-2.949-7.029-4.912-2.199c-1.964,4.818-0.237,6.625-2.45,10.299c-2.212,3.687,0.327,8.101-5.4,5.152c-1.831-0.938-11.11,6.833-10.063,2.21c2.952-12.918,10.849-0.5,10.315-10.063c-1.226-21.839,9.786-21.214,7.111-26.5c-3.601-7.112,3.188-3.188,0.251-11.037c-1.745-4.629-3.689-8.838-2.951-1.476c0.738,7.363-4.578-0.822-6.625,10.549c-2.047,11.372-14.726,9.078-17.426,15.951c-2.699,6.876-7.85,8.791-8.337,12.274c-0.822,5.805-1.961,4.414-5.4,1.227c-3.438-3.193-0.492-11.511-3.675-14.481c-12.275-11.45-5.583-12.663-8.836-16.682c-4.177-5.161-5.567,2.365-10.313-6.39c-3.208-5.922,3.774,0.738,1.968-7.598c-1.066-4.963-4.897,2.448-6.86-0.494c-1.963-2.944,4.254,0.243-1.217-5.896c-5.484-6.126-4.982,3.69-13.737-2.698c-8.747-6.375-7.046,2.904-16.895-4.414c-20.042-14.885-9.938-4.281-23.007-5.149c-12.606-0.837-20.188,0.01-26.188,1.627V284.5h150v3.18v-3.18h50v56.522l-0.12,0.478h-0.369h0.489V439.246z M418.001,474.072c-3.678,0.98,3.924-6.131-15.696-0.736c-2.839,0.782-1.324,5.28,2.943,5.641C422.661,480.449,421.68,473.091,418.001,474.072z" cursor="pointer"></path>
        <path id="aujs6" fill="#00acee" stroke="#FFFFFF" vector-effect="non-scaling-stroke" d="M595.563,604.054c2.453,6.621-5.915,13.985-6.13,17.658c-0.736,12.508-8.584,0.981-9.811,9.075c-1.323,8.732-3.619,5.028-4.66,8.337c-2.698,8.584-2.697,4.66-9.809,3.925c-7.113-0.736-3.658-3.293-9.811-7.113c-14.224-8.829-6.622-23.298-12.752-30.166c-6.131-6.866-11.038-29.675-3.434-24.524c3.349,2.268,9.413-0.75,25.262,8.829c5.65,3.415,7.356-7.603,15.695-4.415c4.723,1.806,2.943-4.415,6.867-2.452c3.924,1.962,3.345-4.334,6.869-0.491C599.242,588.603,593.111,597.432,595.563,604.054z M524.44,555.25c-3.924,3.679-3.434,12.753,0,11.281C527.874,565.059,525.514,554.243,524.44,555.25z M590.902,563.588c1.962,0.981,0.492,9.81,4.17,5.395c3.679-4.415-2.452-7.849-4.17-10.791C585.998,561.871,588.941,562.606,590.902,563.588z" cursor="pointer"></path>
        <path id="aujs7" fill="#00acee" stroke="#FFFFFF" vector-effect="non-scaling-stroke" d="M594.459,493.875c1.377-0.551-2.943-3.311-2.392-10.668c0.415-5.531-6.438-3.126-8.461-4.966c-2.023-1.839-3.311,6.254-12.14,1.655c-5.569-2.9-7.054,0.386-10.853-0.184c-11.037-1.656-9.595-3.084-15.635-3.679c-8.461-0.833-1.29,5.114-5.15,5.335c-6.438,0.368-12.172-11.197-17.29-13.244c-6.438-2.575-0.368-4.231-7.173-5.333c-4.539-0.736,1.276-6.233-6.622-10.485c-9.565-5.15-4.047,3.678-7.725,1.471c-3.679-2.207-2.515-9.564-8.217-12.14c-5.702-2.575-7.301,3.863-18.301-2.391v83.316c2,0.542,4.461,1.835,6.236,5.529c2.853,5.938,6.109-2.533,11.258,0.488c5.157,3.028,6.123-1.474,10.459,2.7c4.335,4.175,5.551,1.878,7.681,5.15c2.129,3.272,4.326-1.63,5.883,1.723c1.561,3.355,7.451-2.37,12.511-7.359c5.971-5.888,6.222-3.033,8.101-4.915c1.877-1.877-1.061-5.971,3.924-6.133c4.997-0.156,2.003,8.99-0.738,8.835c-5.887-0.321,1.225,3.923,5.154,1.224c3.929-2.698,4.422-0.973,5.396,4.425c0.988,5.396,5.316-1.071,6.138,3.43c1.247,6.866,3.27-3.193,6.383,4.421c2.203,5.399,3.43,4.169,3.192,0c-0.18-3.029,2.202-3.767-1.723-2.213c-2.106,0.837-5.235-3.841,2.46-3.674c7.686,0.155,15.146-10.375,15.946-11.288c0.798-0.926-8.511-1.475-0.244-2.462c4.713-0.559,4.623-5.062,7.85-3.676c5.15,2.209,1.225-1.962,22.826-1.962c12.758,0,3.843-8.837,9.564-5.648C617.944,506.362,589.86,495.715,594.459,493.875z" cursor="pointer"></path>
        <path id="aujs8" fill="#00acee" stroke="#FFFFFF" vector-effect="non-scaling-stroke" d="M274.5,284.5v107.804c-15,4.05-15.627,12.94-43.005,12.36c-17.297-0.366-17.419,9.199-33.005,12.76c-8.304,1.896-8.262,19.223-18.406,20.115c-7.258,0.643-2.128-2.201-12.512-0.974c-5.872,0.692-7.12,3.842-9.57,0.486c-2.456-3.354-0.375,0.562-8.591-1.475c-9.899-2.449-16.224,3.868-21.346,1.963c-9.242-3.435-11.861,15.058-19.875,10.314c-3.407-2.016-20.369,16.604-25.519,12.754c-5.158-3.848-15.708,1.47-20.126-2.695c-3.46-3.273-4.202-1.058-8.832-6.385c-10.306-11.859-13.006-2.047-14.482-8.1c-0.925-3.812,0.495-16.604,2.952-13c2.449,3.6,10.929-2.463,8.831-11.037c-2.616-10.716,3.941-19.947,0-27.002c-20.739-37.05-7.12-42.202-15.459-51.525c-3.355-3.755-2.894-10.938-6.874-14.422c-6.708-5.863-0.813-10.61-6.624-19.688c-4.51-7.055-11.892-15.859-13.988-21.594c-3.757-10.304-1.309-12.516,1.962-1.229c1.532,5.27,2.948-0.001,5.4,7.362c2.458,7.364,6.478,1.76,3.925-2.206c-0.574-0.901,1.719-4.908,1.962-3.928c0.251,0.982,1.065,8.263,3.438,6.627c0.854-0.594,2.784-12.519-0.738-13.987c-3.514-1.476-0.411-6.465-5.644-10.064c-4.045-2.781-2.812-5.096-4.415-10.549c-4.005-13.66,7.115-18.895,5.396-23.07c-1.72-4.167,3.043-6.062,0.252-8.342c-5.728-4.661,1.056-8.505,1.71-14.233c0.654-5.721,5.282-5.638,4.176-2.45c-2.457,7.034,0.982,6.299,0,8.343c-0.98,2.042,3.598,4.496,5.4-4.417c1.796-8.915,15.618-9.307,22.081-16.932c9.082-10.717,12.923-5.811,20.613-10.063c7.691-4.251,8.191,3.357,14.726-1.468c9.729-7.203,13.326-2.293,16.437-6.626c3.111-4.333,5.887-4.418,10.063-3.194c4.168,1.228,5.231-0.991,8.587-1.468c27.976-4.008,24.949-25.442,35.087-29.452c6.571-2.595,4.336-5.971,2.208-5.149c-2.125,0.814-3.517-14.884,3.93-17.912c3.71-1.516-1.231-3.111,3.925-3.439c2.979-0.186-0.664-1.717,1.962-4.662c3.355-3.759,3.189,0.495,3.438,2.457c0.245,1.962,10.446,18.497,10.056,15.212c-1.39-11.78-0.571-8.016,3.682-7.118c1.936,0.41-0.487-4.413-4.168-7.607c-3.682-3.187,3.27-2.777,0.981-5.888c-2.29-3.107,0.699-4.28,1.963-1.719c2.779,5.645,1.552-3.026,8.587,3.195c3.64,3.214,4.251,0.075,2.456-2.213c-1.803-2.289,5.846-2.933,1.963-5.888c-5.812-4.418,2.698-13.743,5.15-11.287c2.456,2.457,3.599,2.129,2.944-1.476c-0.654-3.598,9.082,2.13,4.91-5.643c-3.227-6.001-0.248-5.645,2.454-5.394c2.7,0.243,11.044,5.233,9.819-1.477c-1.23-6.708,4.172-1.719,4.909-5.887c0.736-4.175,6.79,1.879,7.61-3.438c0.489-3.2,3.932-3.431,4.424-0.98c0.49,2.457,10.484,2.54,12.287,7.857c1.796,5.318,7.908,4.67,6.406,7.85c-2.696,5.729,5.38,6.005,4.973,1.962c-0.553-5.496,5.144-0.942,9.144,0.923v197.909V284.5h-0.613H274.5z M18.979,280.569c0,0-3.433-3.924-5.64-6.132C15.43,291.292,17.753,284.248,18.979,280.569z" cursor="pointer"></path>
      </g>

      <g id="visnames" fill="#fff">
        <a href="#"><text id="aujsvn1" style="font-weight: bold; font-family: arial; fill: #fff;" transform="matrix(1 0 0 1 563 468)" font-size="18" cursor="pointer">ACT</text></a>
        <text id="aujsvn2" style="font-weight: bold; font-family: arial; fill: #fff;" transform="matrix(1 0 0 1 552 415)" font-size="23" cursor="pointer">NSW</text>
        <text id="aujsvn3" style="font-weight: bold; font-family: arial; fill: #fff;" transform="matrix(1 0 0 1 337 192)" font-size="23" cursor="pointer">NT</text>
        <text id="aujsvn4" style="font-weight: bold; font-family: arial; fill: #fff;" transform="matrix(1 0 0 1 518 252)" font-size="23" cursor="pointer">QLD</text>
        <text id="aujsvn5" style="font-weight: bold; font-family: arial; fill: #fff;" transform="matrix(1 0 0 1 367 356)" font-size="23" cursor="pointer">SA</text>
        <text id="aujsvn6" style="font-weight: bold; font-family: arial; fill: #fff;" transform="matrix(1 0 0 1 549 615)" font-size="18" cursor="pointer">TAS</text>
        <text id="aujsvn7" style="font-weight: bold; font-family: arial; fill: #fff;" transform="matrix(1 0 0 1 508 513)" font-size="22" cursor="pointer">VIC</text>
        <text id="aujsvn8" style="font-weight: bold; font-family: arial; fill: #fff;" transform="matrix(1 0 0 1 130 299)" font-size="25" cursor="pointer">WA</text>
      </g>
      
    </svg>